<svg width="155" height="52" viewBox="0 0 155 52" fill="none" xmlns="http://www.w3.org/2000/svg">
<path d="M28.8299 4.19983C28.9399 4.26983 29.0499 4.33983 29.1499 4.40983C29.1699 4.41983 29.1899 4.42983 29.1999 4.43983C29.5599 4.67983 29.9199 4.91983 30.2799 5.16983L30.5399 5.34983C31.2299 5.82983 31.9099 6.31983 32.5899 6.82983C33.6299 6.17983 34.6899 5.55983 35.7699 4.95983C36.1099 4.76983 36.4499 4.58983 36.7899 4.39983C36.2499 4.12983 35.6999 3.85983 35.1499 3.60983C34.6599 3.37983 34.1699 3.15983 33.6799 2.93983C21.4799 -2.05017 25.8899 2.24983 28.8299 4.19983Z" fill="white"/>
<path d="M76.1101 49.0596C75.9701 48.6596 75.8301 48.2496 75.6801 47.8496H62.1201C62.3101 48.4096 62.5101 48.9796 62.6901 49.5496C62.7001 49.5696 62.7001 49.5796 62.7101 49.5996C63.3001 51.3596 64.1301 51.6496 64.4901 51.6796H64.6701H75.3701C76.6301 51.6796 76.5101 50.3896 76.1101 49.0596Z" fill="white"/>
<path d="M63.1204 25.5496C57.7304 18.8496 51.3704 13.1496 44.1704 8.55957C43.4104 9.13957 42.6604 9.73957 41.9204 10.3496L41.4604 10.7396C40.7604 11.3296 40.0804 11.9296 39.4004 12.5396C46.3904 19.0896 52.3004 26.9196 56.8104 35.5196H69.9504C67.9404 32.0496 65.6704 28.7196 63.1204 25.5496Z" fill="white"/>
<path d="M0.570193 49.0999C0.180193 50.4099 0.0701929 51.6799 1.32019 51.6799H12.0202H12.2002C12.5602 51.6399 13.4002 51.3599 13.9802 49.5999C14.0002 49.5499 14.0102 49.4999 14.0302 49.4599C14.2002 48.9199 14.3902 48.3899 14.5702 47.8599H1.00019C0.860186 48.2599 0.710193 48.6799 0.570193 49.0999Z" fill="white"/>
<path d="M40.5403 9.63974L41.0103 9.24975C42.6803 7.85975 44.4102 6.54974 46.1502 5.34974L46.4102 5.16974C46.7702 4.91974 47.1302 4.67975 47.4902 4.43975C47.5102 4.42975 47.5303 4.41975 47.5403 4.40975C47.6503 4.33975 47.7602 4.26974 47.8602 4.19974C50.7902 2.23974 55.2103 -2.06025 43.0103 2.93975C42.5203 3.15975 42.0303 3.37975 41.5403 3.60975C39.8203 4.40975 38.1202 5.27974 36.4602 6.20974C27.6302 11.1497 19.9203 17.6597 13.5703 25.5597C11.0203 28.7297 8.75023 32.0497 6.74023 35.5297H19.8602C25.0702 25.6097 32.1203 16.7297 40.5403 9.63974Z" fill="white"/>
<path d="M62.4202 45.2299C62.3502 44.4099 61.7002 43.7599 60.8802 43.6899C60.8002 43.6799 60.7302 43.7499 60.7402 43.8299C60.8102 44.6499 61.4602 45.2999 62.2802 45.3699C62.3502 45.3799 62.4202 45.3099 62.4202 45.2299Z" fill="white"/>
<path d="M62.7698 45.3699C63.5898 45.2999 64.2399 44.6499 64.3099 43.8299C64.3199 43.7499 64.2499 43.6799 64.1699 43.6899C63.3499 43.7599 62.6999 44.4099 62.6299 45.2299C62.6199 45.3099 62.6898 45.3799 62.7698 45.3699Z" fill="white"/>
<path d="M62.2805 45.5796C62.0405 45.5996 61.8105 45.6696 61.6105 45.7896C61.5005 45.8496 61.4605 45.9896 61.5005 46.1096C61.6005 46.3696 61.7005 46.6296 61.7905 46.8896C62.1405 46.6096 62.3805 46.1996 62.4205 45.7196C62.4205 45.6396 62.3505 45.5696 62.2805 45.5796Z" fill="white"/>
<path d="M64.1699 47.2596C64.2499 47.2696 64.3199 47.1996 64.3099 47.1196C64.2399 46.2996 63.5898 45.6496 62.7698 45.5796C62.6898 45.5696 62.6199 45.6396 62.6299 45.7196C62.6999 46.5396 63.3499 47.1896 64.1699 47.2596Z" fill="white"/>
<path d="M64.7299 45.4699C64.7299 45.2999 64.5899 45.1499 64.4099 45.1499C64.2299 45.1499 64.0898 45.2899 64.0898 45.4699C64.0898 45.6399 64.2299 45.7899 64.4099 45.7899C64.5899 45.7899 64.7299 45.6499 64.7299 45.4699Z" fill="white"/>
<path d="M64.6605 43.6797C64.5805 43.6697 64.5105 43.7397 64.5205 43.8197C64.5905 44.6397 65.2405 45.2897 66.0605 45.3597C66.1405 45.3697 66.2105 45.2997 66.2005 45.2197C66.1405 44.4097 65.4805 43.7497 64.6605 43.6797Z" fill="white"/>
<path d="M66.5599 45.3699C67.3799 45.2999 68.0299 44.6499 68.0999 43.8299C68.1099 43.7499 68.0399 43.6799 67.9599 43.6899C67.1399 43.7599 66.4899 44.4099 66.4199 45.2299C66.4099 45.3099 66.4799 45.3799 66.5599 45.3699Z" fill="white"/>
<path d="M64.6605 47.2596C65.4805 47.1896 66.1305 46.5396 66.2005 45.7196C66.2105 45.6396 66.1405 45.5696 66.0605 45.5796C65.2405 45.6496 64.5905 46.2996 64.5205 47.1196C64.5205 47.1996 64.5905 47.2696 64.6605 47.2596Z" fill="white"/>
<path d="M67.9599 47.2596C68.0399 47.2696 68.1099 47.1996 68.0999 47.1196C68.0299 46.2996 67.3799 45.6496 66.5599 45.5796C66.4799 45.5696 66.4099 45.6396 66.4199 45.7196C66.4799 46.5396 67.1399 47.1896 67.9599 47.2596Z" fill="white"/>
<path d="M68.5199 45.4699C68.5199 45.2999 68.3799 45.1499 68.1999 45.1499C68.0299 45.1499 67.8799 45.2899 67.8799 45.4699C67.8799 45.6399 68.0199 45.7899 68.1999 45.7899C68.3799 45.7899 68.5199 45.6499 68.5199 45.4699Z" fill="white"/>
<path d="M68.4505 43.6797C68.3705 43.6697 68.3005 43.7397 68.3105 43.8197C68.3805 44.6397 69.0305 45.2897 69.8505 45.3597C69.9305 45.3697 70.0005 45.2997 69.9905 45.2197C69.9305 44.4097 69.2705 43.7497 68.4505 43.6797Z" fill="white"/>
<path d="M70.35 45.3699C71.17 45.2999 71.82 44.6499 71.89 43.8299C71.9 43.7499 71.8299 43.6799 71.7499 43.6899C70.9299 43.7599 70.2799 44.4099 70.2099 45.2299C70.1999 45.3099 70.27 45.3799 70.35 45.3699Z" fill="white"/>
<path d="M68.4505 47.2596C69.2705 47.1896 69.9205 46.5396 69.9905 45.7196C70.0005 45.6396 69.9305 45.5696 69.8505 45.5796C69.0305 45.6496 68.3805 46.2996 68.3105 47.1196C68.3005 47.1996 68.3705 47.2696 68.4505 47.2596Z" fill="white"/>
<path d="M71.7499 47.2596C71.8299 47.2696 71.9 47.1996 71.89 47.1196C71.82 46.2996 71.17 45.6496 70.35 45.5796C70.27 45.5696 70.1999 45.6396 70.2099 45.7196C70.2699 46.5396 70.9299 47.1896 71.7499 47.2596Z" fill="white"/>
<path d="M71.9899 45.1597C71.8199 45.1597 71.6699 45.2997 71.6699 45.4797C71.6699 45.6497 71.8099 45.7997 71.9899 45.7997C72.1599 45.7997 72.3099 45.6597 72.3099 45.4797C72.3099 45.2997 72.1699 45.1597 71.9899 45.1597Z" fill="white"/>
<path d="M72.2405 43.6797C72.1605 43.6697 72.0906 43.7397 72.1006 43.8197C72.1706 44.6397 72.8206 45.2897 73.6406 45.3597C73.7206 45.3697 73.7906 45.2997 73.7806 45.2197C73.7206 44.4097 73.0605 43.7497 72.2405 43.6797Z" fill="white"/>
<path d="M72.2405 47.2596C73.0605 47.1896 73.7106 46.5396 73.7806 45.7196C73.7906 45.6396 73.7206 45.5696 73.6406 45.5796C72.8206 45.6496 72.1706 46.2996 72.1006 47.1196C72.0906 47.1996 72.1605 47.2696 72.2405 47.2596Z" fill="white"/>
<path d="M75.4602 47.2496C75.3002 46.8096 75.1302 46.3796 74.9602 45.9496C74.9402 45.8896 74.9002 45.8396 74.8502 45.8096C74.6402 45.6796 74.3902 45.5996 74.1302 45.5796C74.0502 45.5696 73.9802 45.6396 73.9902 45.7196C74.0602 46.5096 74.6802 47.1496 75.4602 47.2496Z" fill="white"/>
<path d="M60.9398 41.6799C60.9398 41.5099 60.7998 41.3599 60.6198 41.3599C60.4498 41.3599 60.2998 41.4999 60.2998 41.6799C60.2998 41.8499 60.4398 41.9999 60.6198 41.9999C60.7998 41.9999 60.9398 41.8599 60.9398 41.6799Z" fill="white"/>
<path d="M60.8704 39.8896C60.7904 39.8796 60.7204 39.9496 60.7304 40.0296C60.8004 40.8496 61.4504 41.4996 62.2704 41.5696C62.3504 41.5796 62.4204 41.5096 62.4104 41.4296C62.3504 40.6196 61.6904 39.9596 60.8704 39.8896Z" fill="white"/>
<path d="M62.7698 41.5799C63.5898 41.5099 64.2399 40.8599 64.3099 40.0399C64.3199 39.9599 64.2499 39.8899 64.1699 39.8999C63.3499 39.9699 62.6999 40.6199 62.6299 41.4399C62.6199 41.5199 62.6898 41.5899 62.7698 41.5799Z" fill="white"/>
<path d="M62.2802 41.7895C61.4602 41.8595 60.8102 42.5095 60.7402 43.3295C60.7302 43.4095 60.8002 43.4795 60.8802 43.4695C61.7002 43.3995 62.3502 42.7495 62.4202 41.9295C62.4202 41.8495 62.3502 41.7795 62.2802 41.7895Z" fill="white"/>
<path d="M64.1699 43.4695C64.2499 43.4795 64.3199 43.4095 64.3099 43.3295C64.2399 42.5095 63.5898 41.8595 62.7698 41.7895C62.6898 41.7795 62.6199 41.8495 62.6299 41.9295C62.6999 42.7495 63.3499 43.3995 64.1699 43.4695Z" fill="white"/>
<path d="M64.1006 41.6799C64.1006 41.8499 64.2406 41.9999 64.4206 41.9999C64.6006 41.9999 64.7406 41.8599 64.7406 41.6799C64.7406 41.5099 64.6006 41.3599 64.4206 41.3599C64.2406 41.3599 64.1006 41.5099 64.1006 41.6799Z" fill="white"/>
<path d="M64.6605 39.8896C64.5805 39.8796 64.5105 39.9496 64.5205 40.0296C64.5905 40.8496 65.2405 41.4996 66.0605 41.5696C66.1405 41.5796 66.2105 41.5096 66.2005 41.4296C66.1405 40.6196 65.4805 39.9596 64.6605 39.8896Z" fill="white"/>
<path d="M66.5599 41.5799C67.3799 41.5099 68.0299 40.8599 68.0999 40.0399C68.1099 39.9599 68.0399 39.8899 67.9599 39.8999C67.1399 39.9699 66.4899 40.6199 66.4199 41.4399C66.4099 41.5199 66.4799 41.5899 66.5599 41.5799Z" fill="white"/>
<path d="M66.0703 41.7895C65.2503 41.8595 64.6003 42.5095 64.5303 43.3295C64.5203 43.4095 64.5903 43.4795 64.6703 43.4695C65.4903 43.3995 66.1402 42.7495 66.2102 41.9295C66.2102 41.8495 66.1403 41.7795 66.0703 41.7895Z" fill="white"/>
<path d="M67.9599 43.4695C68.0399 43.4795 68.1099 43.4095 68.0999 43.3295C68.0299 42.5095 67.3799 41.8595 66.5599 41.7895C66.4799 41.7795 66.4099 41.8495 66.4199 41.9295C66.4799 42.7495 67.1399 43.3995 67.9599 43.4695Z" fill="white"/>
<path d="M67.8906 41.6799C67.8906 41.8499 68.0306 41.9999 68.2106 41.9999C68.3806 41.9999 68.5306 41.8599 68.5306 41.6799C68.5306 41.5099 68.3906 41.3599 68.2106 41.3599C68.0306 41.3699 67.8906 41.5099 67.8906 41.6799Z" fill="white"/>
<path d="M68.4505 39.8896C68.3705 39.8796 68.3005 39.9496 68.3105 40.0296C68.3805 40.8496 69.0305 41.4996 69.8505 41.5696C69.9305 41.5796 70.0005 41.5096 69.9905 41.4296C69.9305 40.6196 69.2705 39.9596 68.4505 39.8896Z" fill="white"/>
<path d="M70.35 41.5799C71.17 41.5099 71.82 40.8599 71.89 40.0399C71.9 39.9599 71.8299 39.8899 71.7499 39.8999C70.9299 39.9699 70.2799 40.6199 70.2099 41.4399C70.1999 41.5199 70.27 41.5899 70.35 41.5799Z" fill="white"/>
<path d="M69.8505 41.7895C69.0305 41.8595 68.3805 42.5095 68.3105 43.3295C68.3005 43.4095 68.3705 43.4795 68.4505 43.4695C69.2705 43.3995 69.9205 42.7495 69.9905 41.9295C70.0005 41.8495 69.9305 41.7795 69.8505 41.7895Z" fill="white"/>
<path d="M71.7499 43.4695C71.8299 43.4795 71.9 43.4095 71.89 43.3295C71.82 42.5095 71.17 41.8595 70.35 41.7895C70.27 41.7795 70.1999 41.8495 70.2099 41.9295C70.2699 42.7495 70.9299 43.3995 71.7499 43.4695Z" fill="white"/>
<path d="M71.6797 41.6799C71.6797 41.8499 71.8197 41.9999 71.9997 41.9999C72.1697 41.9999 72.3197 41.8599 72.3197 41.6799C72.3197 41.5099 72.1797 41.3599 71.9997 41.3599C71.8197 41.3699 71.6797 41.5099 71.6797 41.6799Z" fill="white"/>
<path d="M72.2405 43.4698C72.7805 43.4198 73.2405 43.1198 73.5205 42.6898C73.5505 42.6398 73.5506 42.5798 73.5306 42.5398C73.4506 42.3698 73.3705 42.1998 73.3005 42.0298C73.2605 41.9498 73.1706 41.9098 73.0906 41.9498C72.5506 42.1998 72.1606 42.7198 72.1006 43.3398C72.0906 43.4098 72.1605 43.4798 72.2405 43.4698Z" fill="white"/>
<path d="M60.3798 36.0996C59.5598 36.1696 58.9098 36.8196 58.8398 37.6396C58.8298 37.7196 58.8998 37.7896 58.9798 37.7796C59.7998 37.7096 60.4498 37.0596 60.5198 36.2396C60.5298 36.1696 60.4598 36.0996 60.3798 36.0996Z" fill="white"/>
<path d="M60.5198 39.54C60.4498 38.72 59.7998 38.07 58.9798 38C58.8998 37.99 58.8298 38.06 58.8398 38.14C58.9098 38.96 59.5598 39.61 60.3798 39.68C60.4598 39.69 60.5298 39.62 60.5198 39.54Z" fill="white"/>
<path d="M60.6306 38.2098C60.8006 38.2098 60.9506 38.0698 60.9506 37.8898C60.9506 37.7198 60.8106 37.5698 60.6306 37.5698C60.4606 37.5698 60.3105 37.7098 60.3105 37.8898C60.3105 38.0698 60.4506 38.2098 60.6306 38.2098Z" fill="white"/>
<path d="M60.8704 36.0996C60.7904 36.0896 60.7204 36.1596 60.7304 36.2396C60.8004 37.0596 61.4504 37.7096 62.2704 37.7796C62.3504 37.7896 62.4204 37.7196 62.4104 37.6396C62.3504 36.8296 61.6904 36.1796 60.8704 36.0996Z" fill="white"/>
<path d="M64.1699 36.0996C63.3499 36.1696 62.6999 36.8196 62.6299 37.6396C62.6199 37.7196 62.6898 37.7896 62.7698 37.7796C63.5898 37.7096 64.2399 37.0596 64.3099 36.2396C64.3199 36.1696 64.2499 36.0996 64.1699 36.0996Z" fill="white"/>
<path d="M62.2802 38C61.4602 38.07 60.8102 38.72 60.7402 39.54C60.7302 39.62 60.8002 39.69 60.8802 39.68C61.7002 39.61 62.3502 38.96 62.4202 38.14C62.4202 38.06 62.3502 37.99 62.2802 38Z" fill="white"/>
<path d="M64.1699 39.68C64.2499 39.69 64.3199 39.62 64.3099 39.54C64.2399 38.72 63.5898 38.07 62.7698 38C62.6898 37.99 62.6199 38.06 62.6299 38.14C62.6999 38.96 63.3499 39.61 64.1699 39.68Z" fill="white"/>
<path d="M64.7299 37.8898C64.7299 37.7198 64.5899 37.5698 64.4099 37.5698C64.2299 37.5698 64.0898 37.7098 64.0898 37.8898C64.0898 38.0598 64.2299 38.2098 64.4099 38.2098C64.5899 38.2098 64.7299 38.0698 64.7299 37.8898Z" fill="white"/>
<path d="M64.6605 36.0996C64.5805 36.0896 64.5105 36.1596 64.5205 36.2396C64.5905 37.0596 65.2405 37.7096 66.0605 37.7796C66.1405 37.7896 66.2105 37.7196 66.2005 37.6396C66.1405 36.8296 65.4805 36.1796 64.6605 36.0996Z" fill="white"/>
<path d="M67.9599 36.0996C67.1399 36.1696 66.4899 36.8196 66.4199 37.6396C66.4099 37.7196 66.4799 37.7896 66.5599 37.7796C67.3799 37.7096 68.0299 37.0596 68.0999 36.2396C68.1099 36.1696 68.0399 36.0996 67.9599 36.0996Z" fill="white"/>
<path d="M66.0703 38C65.2503 38.07 64.6003 38.72 64.5303 39.54C64.5203 39.62 64.5903 39.69 64.6703 39.68C65.4903 39.61 66.1402 38.96 66.2102 38.14C66.2102 38.06 66.1403 37.99 66.0703 38Z" fill="white"/>
<path d="M67.9599 39.68C68.0399 39.69 68.1099 39.62 68.0999 39.54C68.0299 38.72 67.3799 38.07 66.5599 38C66.4799 37.99 66.4099 38.06 66.4199 38.14C66.4799 38.96 67.1399 39.61 67.9599 39.68Z" fill="white"/>
<path d="M68.5199 37.8898C68.5199 37.7198 68.3799 37.5698 68.1999 37.5698C68.0299 37.5698 67.8799 37.7098 67.8799 37.8898C67.8799 38.0598 68.0199 38.2098 68.1999 38.2098C68.3799 38.2098 68.5199 38.0698 68.5199 37.8898Z" fill="white"/>
<path d="M68.4505 36.0996C68.3705 36.0896 68.3005 36.1596 68.3105 36.2396C68.3805 37.0596 69.0305 37.7096 69.8505 37.7796C69.9305 37.7896 70.0005 37.7196 69.9905 37.6396C69.9305 36.8296 69.2705 36.1796 68.4505 36.0996Z" fill="white"/>
<path d="M69.8505 38C69.0305 38.07 68.3805 38.72 68.3105 39.54C68.3005 39.62 68.3705 39.69 68.4505 39.68C69.2705 39.61 69.9205 38.96 69.9905 38.14C70.0005 38.06 69.9305 37.99 69.8505 38Z" fill="white"/>
<path d="M71.7499 39.68C71.8299 39.69 71.9 39.62 71.89 39.54C71.82 38.72 71.17 38.07 70.35 38C70.27 37.99 70.1999 38.06 70.2099 38.14C70.2699 38.96 70.9299 39.61 71.7499 39.68Z" fill="white"/>
<path d="M15.79 43.6797C14.97 43.7497 14.32 44.3997 14.25 45.2197C14.24 45.2997 14.31 45.3697 14.39 45.3597C15.21 45.2897 15.86 44.6397 15.93 43.8197C15.94 43.7497 15.87 43.6797 15.79 43.6797Z" fill="white"/>
<path d="M12.5003 43.6797C12.4203 43.6697 12.3503 43.7397 12.3603 43.8197C12.4303 44.6397 13.0803 45.2897 13.9003 45.3597C13.9803 45.3697 14.0504 45.2997 14.0404 45.2197C13.9704 44.4097 13.3203 43.7497 12.5003 43.6797Z" fill="white"/>
<path d="M14.25 45.7196C14.29 46.2096 14.54 46.6296 14.91 46.9096C15 46.6396 15.1 46.3796 15.2 46.1196C15.24 45.9996 15.2 45.8696 15.1 45.8096C14.89 45.6896 14.65 45.6096 14.4 45.5796C14.31 45.5696 14.24 45.6396 14.25 45.7196Z" fill="white"/>
<path d="M12.5003 47.2596C13.3203 47.1896 13.9704 46.5396 14.0404 45.7196C14.0504 45.6396 13.9803 45.5696 13.9003 45.5796C13.0803 45.6496 12.4303 46.2996 12.3603 47.1196C12.3503 47.1996 12.4203 47.2696 12.5003 47.2596Z" fill="white"/>
<path d="M11.9297 45.4699C11.9297 45.6399 12.0697 45.7899 12.2497 45.7899C12.4197 45.7899 12.5697 45.6499 12.5697 45.4699C12.5697 45.2999 12.4297 45.1499 12.2497 45.1499C12.0697 45.1599 11.9297 45.2999 11.9297 45.4699Z" fill="white"/>
<path d="M10.6 45.3699C11.42 45.2999 12.07 44.6499 12.14 43.8299C12.15 43.7499 12.0799 43.6799 11.9999 43.6899C11.1799 43.7599 10.5299 44.4099 10.4599 45.2299C10.4499 45.3099 10.52 45.3799 10.6 45.3699Z" fill="white"/>
<path d="M8.71028 43.6797C8.63028 43.6697 8.56029 43.7397 8.57029 43.8197C8.64029 44.6397 9.29027 45.2897 10.1103 45.3597C10.1903 45.3697 10.2603 45.2997 10.2503 45.2197C10.1803 44.4097 9.53028 43.7497 8.71028 43.6797Z" fill="white"/>
<path d="M11.9999 47.2596C12.0799 47.2696 12.15 47.1996 12.14 47.1196C12.07 46.2996 11.42 45.6496 10.6 45.5796C10.52 45.5696 10.4499 45.6396 10.4599 45.7196C10.5299 46.5396 11.1799 47.1896 11.9999 47.2596Z" fill="white"/>
<path d="M8.71028 47.2596C9.53028 47.1896 10.1803 46.5396 10.2503 45.7196C10.2603 45.6396 10.1903 45.5696 10.1103 45.5796C9.29027 45.6496 8.64029 46.2996 8.57029 47.1196C8.56029 47.1996 8.63028 47.2696 8.71028 47.2596Z" fill="white"/>
<path d="M8.14062 45.4699C8.14062 45.6399 8.2806 45.7899 8.4606 45.7899C8.6406 45.7899 8.78061 45.6499 8.78061 45.4699C8.78061 45.2999 8.6406 45.1499 8.4606 45.1499C8.2806 45.1499 8.14062 45.2999 8.14062 45.4699Z" fill="white"/>
<path d="M6.80988 45.3699C7.62988 45.2999 8.27989 44.6499 8.34989 43.8299C8.35989 43.7499 8.28988 43.6799 8.20988 43.6899C7.38988 43.7599 6.7399 44.4099 6.6699 45.2299C6.6599 45.3099 6.72988 45.3799 6.80988 45.3699Z" fill="white"/>
<path d="M4.92027 43.6797C4.84027 43.6697 4.77025 43.7397 4.78025 43.8197C4.85025 44.6397 5.50026 45.2897 6.32026 45.3597C6.40026 45.3697 6.47024 45.2997 6.46024 45.2197C6.39024 44.4097 5.74027 43.7497 4.92027 43.6797Z" fill="white"/>
<path d="M8.20988 47.2596C8.28988 47.2696 8.35989 47.1996 8.34989 47.1196C8.27989 46.2996 7.62988 45.6496 6.80988 45.5796C6.72988 45.5696 6.6599 45.6396 6.6699 45.7196C6.7399 46.5396 7.38988 47.1896 8.20988 47.2596Z" fill="white"/>
<path d="M4.92027 47.2596C5.74027 47.1896 6.39024 46.5396 6.46024 45.7196C6.47024 45.6396 6.40026 45.5696 6.32026 45.5796C5.50026 45.6496 4.85025 46.2996 4.78025 47.1196C4.77025 47.1996 4.84027 47.2696 4.92027 47.2596Z" fill="white"/>
<path d="M4.67059 45.1597C4.50059 45.1597 4.35059 45.2997 4.35059 45.4797C4.35059 45.6497 4.49059 45.7997 4.67059 45.7997C4.85059 45.7997 4.99057 45.6597 4.99057 45.4797C4.99057 45.2997 4.84059 45.1597 4.67059 45.1597Z" fill="white"/>
<path d="M3.01985 45.3699C3.83985 45.2999 4.48985 44.6499 4.55985 43.8299C4.56985 43.7499 4.49987 43.6799 4.41987 43.6899C3.59987 43.7599 2.94986 44.4099 2.87986 45.2299C2.86986 45.3099 2.93985 45.3799 3.01985 45.3699Z" fill="white"/>
<path d="M4.41987 47.2596C4.49987 47.2696 4.56985 47.1996 4.55985 47.1196C4.48985 46.2996 3.83985 45.6496 3.01985 45.5796C2.93985 45.5696 2.86986 45.6396 2.87986 45.7196C2.94986 46.5396 3.59987 47.1896 4.41987 47.2596Z" fill="white"/>
<path d="M2.67026 45.7196C2.68026 45.6396 2.61024 45.5696 2.53024 45.5796C2.29024 45.5996 2.06023 45.6796 1.86023 45.7896C1.81023 45.8196 1.76023 45.8696 1.74023 45.9296C1.57023 46.3696 1.40023 46.8096 1.24023 47.2496C2.00023 47.1296 2.60026 46.4996 2.67026 45.7196Z" fill="white"/>
<path d="M16.0397 41.3696C15.8697 41.3696 15.7197 41.5096 15.7197 41.6896C15.7197 41.8596 15.8597 42.0096 16.0397 42.0096C16.2197 42.0096 16.3597 41.8696 16.3597 41.6896C16.3497 41.5096 16.2097 41.3696 16.0397 41.3696Z" fill="white"/>
<path d="M14.39 41.5799C15.21 41.5099 15.86 40.8599 15.93 40.0399C15.94 39.9599 15.87 39.8899 15.79 39.8999C14.97 39.9699 14.32 40.6199 14.25 41.4399C14.24 41.5199 14.31 41.5899 14.39 41.5799Z" fill="white"/>
<path d="M12.5003 39.8896C12.4203 39.8796 12.3503 39.9496 12.3603 40.0296C12.4303 40.8496 13.0803 41.4996 13.9003 41.5696C13.9803 41.5796 14.0504 41.5096 14.0404 41.4296C13.9704 40.6196 13.3203 39.9596 12.5003 39.8896Z" fill="white"/>
<path d="M14.39 41.7895C14.31 41.7795 14.24 41.8495 14.25 41.9295C14.32 42.7495 14.97 43.3995 15.79 43.4695C15.87 43.4795 15.94 43.4095 15.93 43.3295C15.86 42.5095 15.21 41.8595 14.39 41.7895Z" fill="white"/>
<path d="M13.9003 41.7895C13.0803 41.8595 12.4303 42.5095 12.3603 43.3295C12.3503 43.4095 12.4203 43.4795 12.5003 43.4695C13.3203 43.3995 13.9704 42.7495 14.0404 41.9295C14.0504 41.8495 13.9803 41.7795 13.9003 41.7895Z" fill="white"/>
<path d="M12.5599 41.6799C12.5599 41.5099 12.4199 41.3599 12.2399 41.3599C12.0699 41.3599 11.9199 41.4999 11.9199 41.6799C11.9199 41.8499 12.0599 41.9999 12.2399 41.9999C12.4199 41.9999 12.5599 41.8599 12.5599 41.6799Z" fill="white"/>
<path d="M10.6 41.5799C11.42 41.5099 12.07 40.8599 12.14 40.0399C12.15 39.9599 12.0799 39.8899 11.9999 39.8999C11.1799 39.9699 10.5299 40.6199 10.4599 41.4399C10.4499 41.5199 10.52 41.5899 10.6 41.5799Z" fill="white"/>
<path d="M8.71028 39.8896C8.63028 39.8796 8.56029 39.9496 8.57029 40.0296C8.64029 40.8496 9.29027 41.4996 10.1103 41.5696C10.1903 41.5796 10.2603 41.5096 10.2503 41.4296C10.1803 40.6196 9.53028 39.9596 8.71028 39.8896Z" fill="white"/>
<path d="M11.9999 43.4695C12.0799 43.4795 12.15 43.4095 12.14 43.3295C12.07 42.5095 11.42 41.8595 10.6 41.7895C10.52 41.7795 10.4499 41.8495 10.4599 41.9295C10.5299 42.7495 11.1799 43.3995 11.9999 43.4695Z" fill="white"/>
<path d="M10.1103 41.7895C9.29027 41.8595 8.64029 42.5095 8.57029 43.3295C8.56029 43.4095 8.63028 43.4795 8.71028 43.4695C9.53028 43.3995 10.1803 42.7495 10.2503 41.9295C10.2603 41.8495 10.1903 41.7795 10.1103 41.7895Z" fill="white"/>
<path d="M8.76987 41.6799C8.76987 41.5099 8.62989 41.3599 8.44989 41.3599C8.26989 41.3599 8.12988 41.4999 8.12988 41.6799C8.12988 41.8499 8.26989 41.9999 8.44989 41.9999C8.62989 41.9999 8.76987 41.8599 8.76987 41.6799Z" fill="white"/>
<path d="M6.80988 41.5799C7.62988 41.5099 8.27989 40.8599 8.34989 40.0399C8.35989 39.9599 8.28988 39.8899 8.20988 39.8999C7.38988 39.9699 6.7399 40.6199 6.6699 41.4399C6.6599 41.5199 6.72988 41.5899 6.80988 41.5799Z" fill="white"/>
<path d="M6.32026 41.5799C6.40026 41.5899 6.47024 41.5199 6.46024 41.4399C6.39024 40.6199 5.74027 39.9699 4.92027 39.8999C4.84027 39.8899 4.77025 39.9599 4.78025 40.0399C4.85025 40.8599 5.50026 41.5099 6.32026 41.5799Z" fill="white"/>
<path d="M8.20988 43.4695C8.28988 43.4795 8.35989 43.4095 8.34989 43.3295C8.27989 42.5095 7.62988 41.8595 6.80988 41.7895C6.72988 41.7795 6.6599 41.8495 6.6699 41.9295C6.7399 42.7495 7.38988 43.3995 8.20988 43.4695Z" fill="white"/>
<path d="M6.32026 41.7895C5.50026 41.8595 4.85025 42.5095 4.78025 43.3295C4.77025 43.4095 4.84027 43.4795 4.92027 43.4695C5.74027 43.3995 6.39024 42.7495 6.46024 41.9295C6.47024 41.8495 6.40026 41.7795 6.32026 41.7895Z" fill="white"/>
<path d="M4.67059 41.9999C4.84059 41.9999 4.99057 41.8599 4.99057 41.6799C4.99057 41.5099 4.85059 41.3599 4.67059 41.3599C4.49059 41.3599 4.35059 41.4999 4.35059 41.6799C4.35059 41.8599 4.49059 41.9999 4.67059 41.9999Z" fill="white"/>
<path d="M4.42067 43.4698C4.50067 43.4798 4.57066 43.4098 4.56066 43.3298C4.51066 42.7198 4.13067 42.2098 3.60067 41.9498C3.52067 41.9098 3.42067 41.9498 3.39067 42.0298C3.31067 42.1998 3.23065 42.3798 3.15065 42.5498C3.13065 42.5998 3.13066 42.6598 3.16066 42.7098C3.44066 43.1398 3.89067 43.4298 4.42067 43.4698Z" fill="white"/>
<path d="M16.2904 36.0996C16.2104 36.0896 16.1404 36.1596 16.1504 36.2396C16.2204 37.0596 16.8704 37.7096 17.6904 37.7796C17.7704 37.7896 17.8404 37.7196 17.8304 37.6396C17.7604 36.8296 17.1004 36.1796 16.2904 36.0996Z" fill="white"/>
<path d="M17.6904 38C16.8704 38.07 16.2204 38.72 16.1504 39.54C16.1404 39.62 16.2104 39.69 16.2904 39.68C17.1104 39.61 17.7604 38.96 17.8304 38.14C17.8304 38.06 17.7604 37.99 17.6904 38Z" fill="white"/>
<path d="M16.0397 38.2098C16.2097 38.2098 16.3597 38.0698 16.3597 37.8898C16.3597 37.7198 16.2197 37.5698 16.0397 37.5698C15.8597 37.5698 15.7197 37.7098 15.7197 37.8898C15.7197 38.0698 15.8597 38.2098 16.0397 38.2098Z" fill="white"/>
<path d="M15.79 36.0996C14.97 36.1696 14.32 36.8196 14.25 37.6396C14.24 37.7196 14.31 37.7896 14.39 37.7796C15.21 37.7096 15.86 37.0596 15.93 36.2396C15.94 36.1696 15.87 36.0996 15.79 36.0996Z" fill="white"/>
<path d="M12.5003 36.0996C12.4203 36.0896 12.3503 36.1596 12.3603 36.2396C12.4303 37.0596 13.0803 37.7096 13.9003 37.7796C13.9803 37.7896 14.0504 37.7196 14.0404 37.6396C13.9704 36.8296 13.3203 36.1796 12.5003 36.0996Z" fill="white"/>
<path d="M15.79 39.68C15.87 39.69 15.94 39.62 15.93 39.54C15.86 38.72 15.21 38.07 14.39 38C14.31 37.99 14.24 38.06 14.25 38.14C14.32 38.96 14.97 39.61 15.79 39.68Z" fill="white"/>
<path d="M13.9003 38C13.0803 38.07 12.4303 38.72 12.3603 39.54C12.3503 39.62 12.4203 39.69 12.5003 39.68C13.3203 39.61 13.9704 38.96 14.0404 38.14C14.0504 38.06 13.9803 37.99 13.9003 38Z" fill="white"/>
<path d="M11.9297 37.8898C11.9297 38.0598 12.0697 38.2098 12.2497 38.2098C12.4197 38.2098 12.5697 38.0698 12.5697 37.8898C12.5697 37.7198 12.4297 37.5698 12.2497 37.5698C12.0697 37.5798 11.9297 37.7198 11.9297 37.8898Z" fill="white"/>
<path d="M11.9999 36.0996C11.1799 36.1696 10.5299 36.8196 10.4599 37.6396C10.4499 37.7196 10.52 37.7896 10.6 37.7796C11.42 37.7096 12.07 37.0596 12.14 36.2396C12.15 36.1696 12.0799 36.0996 11.9999 36.0996Z" fill="white"/>
<path d="M8.71028 36.0996C8.63028 36.0896 8.56029 36.1596 8.57029 36.2396C8.64029 37.0596 9.29027 37.7096 10.1103 37.7796C10.1903 37.7896 10.2603 37.7196 10.2503 37.6396C10.1803 36.8296 9.53028 36.1796 8.71028 36.0996Z" fill="white"/>
<path d="M11.9999 39.68C12.0799 39.69 12.15 39.62 12.14 39.54C12.07 38.72 11.42 38.07 10.6 38C10.52 37.99 10.4499 38.06 10.4599 38.14C10.5299 38.96 11.1799 39.61 11.9999 39.68Z" fill="white"/>
<path d="M10.1103 38C9.29027 38.07 8.64029 38.72 8.57029 39.54C8.56029 39.62 8.63028 39.69 8.71028 39.68C9.53028 39.61 10.1803 38.96 10.2503 38.14C10.2603 38.06 10.1903 37.99 10.1103 38Z" fill="white"/>
<path d="M8.4606 38.2098C8.63733 38.2098 8.78061 38.0666 8.78061 37.8898C8.78061 37.7131 8.63733 37.5698 8.4606 37.5698C8.28387 37.5698 8.14062 37.7131 8.14062 37.8898C8.14062 38.0666 8.28387 38.2098 8.4606 38.2098Z" fill="white"/>
<path d="M8.20988 36.0996C7.38988 36.1696 6.7399 36.8196 6.6699 37.6396C6.6599 37.7196 6.72988 37.7896 6.80988 37.7796C7.62988 37.7096 8.27989 37.0596 8.34989 36.2396C8.35989 36.1696 8.28988 36.0996 8.20988 36.0996Z" fill="white"/>
<path d="M8.20988 39.68C8.28988 39.69 8.35989 39.62 8.34989 39.54C8.27989 38.72 7.62988 38.07 6.80988 38C6.72988 37.99 6.6599 38.06 6.6699 38.14C6.7399 38.96 7.38988 39.61 8.20988 39.68Z" fill="white"/>
<path d="M4.92027 39.68C5.74027 39.61 6.39024 38.96 6.46024 38.14C6.47024 38.06 6.40026 37.99 6.32026 38C5.50026 38.07 4.85025 38.72 4.78025 39.54C4.77025 39.62 4.84027 39.69 4.92027 39.68Z" fill="white"/>
<path d="M86.9098 4.27986C86.8698 7.88986 86.8998 13.4599 86.9698 14.4999C86.9998 14.7899 87.2699 14.8399 88.2299 14.8399C88.9399 14.8399 90.6298 14.8099 90.8298 14.5799L90.8899 14.5099L90.8998 14.4199C90.9698 13.6999 90.9498 8.85986 90.9298 4.96986V4.30986L91.4798 4.28986C92.7399 4.24986 93.7398 4.20987 94.0898 4.15987C94.3598 4.11987 94.3798 3.82986 94.3998 3.48986C94.4298 3.05986 94.4298 2.41987 94.3998 1.90987C94.3498 0.939866 94.2298 0.729866 94.0098 0.659866H93.9898H93.9698C93.8898 0.649866 93.6598 0.609863 92.2698 0.609863C90.5898 0.609863 83.9698 0.719864 83.6298 0.899864L83.5798 0.929863L83.5498 0.969864C83.3198 1.24986 83.4298 3.58986 83.5698 4.05986L83.6198 4.23986L83.7998 4.25986C84.0398 4.28986 84.4998 4.29987 85.2198 4.29987C85.7598 4.28987 86.3598 4.27986 86.9098 4.27986Z" fill="white"/>
<path d="M94.2998 14.3796L94.4498 14.4896C94.7798 14.7396 97.5898 14.8896 97.9998 14.8896C98.1898 14.8896 98.2898 14.8796 98.3698 14.8096L98.3998 14.7796L98.4198 14.7396C98.5098 14.6096 98.6698 14.1296 99.1498 12.4996C99.1998 12.3196 99.2498 12.1596 99.2898 12.0196C99.4798 12.0196 99.7298 12.0196 100.02 12.0196C100.64 12.0196 101.43 12.0296 102.07 12.0296C102.48 12.0296 102.79 12.0296 102.98 12.0296C103.24 12.8196 103.8 14.4096 103.95 14.7496L103.98 14.8196L104.05 14.8696C104.13 14.9196 104.21 14.9196 104.33 14.9196C104.58 14.9196 107.42 14.8296 107.91 14.5296L108.07 14.4296L108.04 14.2396C107.82 13.0696 106.62 9.48958 105.66 6.69958C105.19 5.33958 104.66 3.83959 104.21 2.59959C103.52 0.689587 103.52 0.689585 103.37 0.629585L103.35 0.619591H103.33C103.28 0.609591 103.12 0.57959 102.35 0.57959C102.32 0.57959 99.0098 0.599591 98.7098 0.799591C98.5998 0.869591 98.5098 0.929585 96.5398 7.08958C95.5998 10.0096 94.5198 13.4596 94.3298 14.1996L94.2998 14.3796ZM101.22 4.86959C101.53 5.96959 102.04 7.67959 102.42 8.79959C101.71 8.79959 100.68 8.81959 100.01 8.82959C100.38 7.72959 100.9 5.96959 101.22 4.86959Z" fill="white"/>
<path d="M122.53 14.9798C122.97 14.9798 123.66 14.9198 124.25 14.8298C125.32 14.6698 125.56 14.4998 125.66 14.3398L125.7 14.2698V14.1898C125.7 13.7398 125.09 9.62976 124.74 7.26976C123.76 0.78976 123.69 0.759762 123.54 0.669762L123.51 0.649765L123.47 0.639763C123.24 0.579763 122.51 0.579765 122.21 0.579765C120.15 0.579765 119.96 0.759763 119.9 0.819763C119.44 1.21976 118.05 6.56977 117.46 8.89977C116.77 6.04977 115.43 1.26976 115.08 0.719765L115.02 0.619766L114.91 0.58976C114.67 0.53976 114 0.509766 113.45 0.509766C111.54 0.509766 111.45 0.76976 111.38 0.94976C111.14 1.68976 109.18 12.9998 109.1 14.0998V14.1198V14.1398C109.12 14.3798 109.27 14.5198 110.53 14.6898C111.2 14.7798 111.96 14.8498 112.38 14.8498C112.47 14.8498 112.55 14.8498 112.61 14.8398L112.81 14.8198L112.86 14.6298C113.05 13.8298 113.41 11.1298 113.72 8.73976C113.78 8.30976 113.83 7.89977 113.88 7.50977C114.48 9.94977 115.55 14.0898 115.75 14.5498L115.76 14.5798L115.78 14.6098C115.86 14.7098 115.95 14.8398 117.45 14.8398C117.8 14.8398 118.63 14.8298 118.87 14.7398L118.99 14.6898L119.03 14.5698C119.41 13.4698 120.36 10.0298 121 7.57977C121.31 10.2898 121.8 14.2798 121.88 14.6998C121.99 14.9798 122.28 14.9798 122.53 14.9798Z" fill="white"/>
<path d="M140.43 14.5296L140.59 14.4296L140.55 14.2396C140.33 13.0696 139.13 9.48958 138.17 6.69958C137.7 5.33958 137.17 3.83959 136.73 2.59959C136.04 0.689587 136.04 0.689585 135.89 0.629585L135.87 0.619591H135.85C135.8 0.609591 135.64 0.57959 134.87 0.57959C134.84 0.57959 131.53 0.599591 131.23 0.799591C131.12 0.869591 131.03 0.929585 129.06 7.08958C128.12 10.0096 127.04 13.4596 126.85 14.1996L126.8 14.3796L126.95 14.4896C127.28 14.7396 130.09 14.8896 130.5 14.8896C130.69 14.8896 130.79 14.8796 130.87 14.8096L130.9 14.7796L130.92 14.7396C131.01 14.6096 131.17 14.1296 131.65 12.4896C131.7 12.3196 131.75 12.1496 131.79 12.0096C131.98 12.0096 132.23 12.0096 132.52 12.0096C133.14 12.0096 133.93 12.0196 134.57 12.0196C134.98 12.0196 135.29 12.0196 135.48 12.0196C135.74 12.8096 136.3 14.3996 136.45 14.7396L136.48 14.8096L136.55 14.8596C136.63 14.9096 136.71 14.9096 136.83 14.9096C137.1 14.9196 139.94 14.8296 140.43 14.5296ZM133.72 4.86959C134.03 5.96959 134.54 7.67959 134.92 8.79959C134.21 8.79959 133.18 8.81959 132.51 8.82959C132.88 7.72959 133.4 5.96959 133.72 4.86959Z" fill="white"/>
<path d="M154.58 0.969589C154.51 0.899589 154.4 0.789589 152.85 0.789589C152.43 0.789589 151.42 0.799586 150.99 0.919586L150.8 0.969589L150.78 1.16959C150.74 1.70959 150.75 3.02959 150.77 4.70959C150.78 5.81959 150.79 7.03959 150.79 8.19958C149.27 5.55958 146.97 1.97959 146.23 0.849586L146.19 0.779587C146.12 0.679587 146.05 0.57959 144.9 0.57959C142.63 0.57959 142.56 0.929584 142.52 1.08958V1.09959V1.10959C142.35 2.50959 142.43 13.3496 142.52 14.4096C142.55 14.6696 142.72 14.7996 144.17 14.7996C144.91 14.7996 145.83 14.7496 146.21 14.6496L146.41 14.5996L146.42 14.3896C146.45 13.5496 146.43 12.0196 146.4 10.3996C146.39 9.48959 146.37 8.54959 146.36 7.65959C147.11 8.82959 147.93 10.1496 148.68 11.3396C149.78 13.0996 150.65 14.4796 150.86 14.7396L150.89 14.7696L150.93 14.7896C150.99 14.8296 151.12 14.9196 152.03 14.9196C154.41 14.9196 154.5 14.5196 154.53 14.3696V14.3496C154.63 13.6596 154.69 10.2396 154.72 7.27959C154.76 1.13959 154.68 1.06959 154.58 0.969589Z" fill="white"/>
<path d="M89.9494 23.7799C87.9694 23.3299 87.9694 23.0499 87.9694 22.7199C87.9694 21.9799 88.9594 21.8999 89.3794 21.8999C90.3594 21.8999 91.4294 22.1699 92.5294 22.6899L92.6294 22.7399L92.6894 22.7499H92.6994C93.1994 22.7499 93.9494 20.6099 93.9594 20.5899C94.1294 20.0899 94.1894 19.7399 93.9694 19.5799C93.2194 18.9899 91.4794 18.3799 89.2894 18.3799C86.1594 18.3799 83.9694 20.1799 83.9694 22.7599C83.9694 25.2399 85.2894 26.6599 88.1194 27.2499C90.3394 27.6999 90.3394 28.1899 90.3394 28.4599C90.3394 29.0499 89.8094 29.3499 88.7494 29.3499C87.3594 29.3499 86.0894 28.5399 85.5394 28.1899C85.4694 28.1499 85.4194 28.1099 85.3694 28.0799L85.3594 28.0699L85.2794 28.0399H85.2194C85.0494 28.0399 84.9494 28.1699 84.9194 28.2099C84.5894 28.6199 83.7894 30.6499 83.8894 31.1299L83.9094 31.2299L83.9994 31.2899C84.7594 31.8599 86.6994 32.7099 88.8994 32.7099C92.8094 32.7099 94.5694 30.4699 94.5694 28.2599C94.5694 26.6699 94.0494 24.7299 89.9494 23.7799Z" fill="white"/>
<path d="M106.81 24.5697C106.34 23.2097 105.81 21.7097 105.36 20.4697C104.67 18.5597 104.67 18.5597 104.52 18.4997L104.5 18.4897H104.48C104.43 18.4797 104.27 18.4497 103.5 18.4497C103.47 18.4497 100.16 18.4697 99.8597 18.6697C99.7497 18.7397 99.6597 18.7997 97.6897 24.9597C96.7497 27.8797 95.6697 31.3397 95.4797 32.0697L95.4297 32.2497L95.5797 32.3597C95.9097 32.6097 98.7197 32.7597 99.1297 32.7597C99.3197 32.7597 99.4197 32.7497 99.4997 32.6797L99.5297 32.6497L99.5497 32.6097C99.6397 32.4797 99.7997 31.9997 100.29 30.3697C100.34 30.1997 100.39 30.0297 100.43 29.8897C100.62 29.8897 100.87 29.8897 101.16 29.8897C101.78 29.8897 102.57 29.8997 103.21 29.8997C103.62 29.8997 103.93 29.8997 104.12 29.8997C104.38 30.6897 104.94 32.2797 105.09 32.6197L105.12 32.6897L105.19 32.7297C105.27 32.7797 105.35 32.7797 105.47 32.7797C105.72 32.7797 108.56 32.6897 109.05 32.3897L109.21 32.2897L109.18 32.0997C108.97 30.9397 107.77 27.3697 106.81 24.5697ZM102.35 22.7497C102.66 23.8497 103.17 25.5597 103.55 26.6797C102.84 26.6797 101.81 26.6897 101.14 26.7097C101.52 25.6097 102.04 23.8497 102.35 22.7497Z" fill="white"/>
<path d="M120.849 18.7098L120.789 18.6698C120.699 18.6098 120.599 18.5298 116.959 18.5298C114.549 18.5298 111.789 18.5698 111.319 18.6398L111.099 18.6698L111.089 18.8998C110.999 20.3298 111.179 31.7598 111.239 32.4298L111.249 32.5298L111.319 32.5998C111.399 32.6798 111.469 32.7498 112.519 32.7498C114.969 32.7498 115.089 32.5298 115.149 32.4198L115.179 32.3598V32.2898C115.199 31.7298 115.179 29.8398 115.149 28.2598C115.809 28.2698 116.559 28.2798 117.239 28.2798C117.919 28.2798 118.489 28.2698 118.899 28.2598C119.609 28.2398 119.869 28.2298 119.869 27.9198C119.869 27.9098 119.869 27.8698 119.869 27.8198C119.979 25.3398 119.829 25.2098 119.689 25.0998C119.529 24.9698 118.119 24.8998 115.499 24.8998C115.349 24.8998 115.209 24.8998 115.069 24.8998L115.009 22.0798C116.009 22.1098 117.559 22.1298 118.789 22.1298C119.849 22.1298 120.489 22.1098 120.709 22.0798L120.919 22.0498L120.949 21.8498C121.039 21.2798 121.089 19.1898 120.889 18.7598L120.849 18.7098Z" fill="white"/>
<path d="M132.51 24.5697C132.04 23.2097 131.51 21.7097 131.06 20.4697C130.37 18.5597 130.37 18.5597 130.22 18.4997L130.2 18.4897H130.18C130.13 18.4797 129.97 18.4497 129.2 18.4497C129.17 18.4497 125.86 18.4697 125.56 18.6697C125.45 18.7397 125.36 18.7997 123.39 24.9597C122.46 27.8797 121.37 31.3297 121.18 32.0697L121.13 32.2497L121.28 32.3597C121.61 32.6097 124.42 32.7597 124.83 32.7597C125.02 32.7597 125.12 32.7497 125.2 32.6797L125.23 32.6497L125.25 32.6097C125.34 32.4797 125.5 31.9997 125.98 30.3697C126.03 30.1897 126.08 30.0297 126.12 29.8897C126.31 29.8897 126.56 29.8897 126.85 29.8897C127.47 29.8897 128.26 29.8997 128.9 29.8997C129.31 29.8997 129.62 29.8997 129.81 29.8997C130.07 30.6897 130.63 32.2797 130.78 32.6197L130.81 32.6897L130.88 32.7297C130.96 32.7797 131.04 32.7797 131.16 32.7797C131.41 32.7797 134.25 32.6897 134.74 32.3897L134.9 32.2897L134.87 32.0997C134.68 30.9397 133.48 27.3697 132.51 24.5697ZM128.06 22.7497C128.37 23.8497 128.88 25.5597 129.26 26.6797C128.55 26.6797 127.52 26.6897 126.85 26.7097C127.22 25.6097 127.74 23.8497 128.06 22.7497Z" fill="white"/>
<path d="M145.609 27.3898C147.119 26.6398 147.889 25.3398 147.889 23.4898C147.889 20.2498 145.779 18.5298 141.799 18.5298C140.289 18.5298 138.189 18.6298 137.209 18.7398L136.989 18.7698L136.959 18.9898C136.789 20.2998 136.709 31.4898 136.809 32.4498C136.859 32.7398 137.119 32.7398 137.899 32.7398C138.359 32.7398 140.229 32.7098 140.479 32.6098L140.629 32.5498L140.649 32.3898C140.709 31.9498 140.719 30.3798 140.739 28.9998C140.739 28.6898 140.749 28.3998 140.749 28.1398C140.979 28.1498 141.269 28.1598 141.489 28.1598C141.529 28.1598 141.569 28.1598 141.609 28.1598C142.629 29.5098 143.649 31.0698 144.279 32.0098C144.889 32.9398 144.899 32.9498 145.049 32.9498H145.079C145.729 32.9498 148.009 32.0198 148.289 31.6498C148.409 31.4898 148.459 31.4198 147.419 29.8598C147.069 29.3298 146.389 28.3498 145.609 27.3898ZM142.049 24.9398C141.719 24.9398 141.289 24.9298 140.939 24.8998C140.939 24.7298 140.939 24.5298 140.939 24.3098C140.939 23.5798 140.949 22.6298 140.939 22.0998C141.279 22.0798 141.659 22.0698 141.929 22.0698C143.649 22.0698 143.879 22.8198 143.879 23.5598C143.889 24.6998 142.889 24.9398 142.049 24.9398Z" fill="white"/>
<path d="M154.47 18.8198L154.41 18.7598C154.35 18.6998 154.22 18.5698 152.56 18.5698C152.03 18.5698 151.08 18.5898 150.69 18.7398L150.52 18.7998L150.51 18.9798C150.36 20.8198 150.41 31.0098 150.49 32.4498V32.4698C150.52 32.6698 150.54 32.8498 152.59 32.8498C154.19 32.8498 154.39 32.6598 154.46 32.4398L154.47 32.4098V32.3798C154.61 31.0798 154.63 19.7498 154.49 18.9098L154.47 18.8198Z" fill="white"/>
<path d="M147.77 41.8697C147.62 42.4097 147.16 43.9997 146.91 44.6997C147.28 44.6897 148.25 44.6797 148.69 44.6797C148.42 43.9397 147.97 42.3797 147.83 41.8697C147.81 41.8597 147.79 41.8697 147.77 41.8697Z" fill="#8BC540"/>
<path d="M112.32 41.7798C111.21 41.7798 110.59 42.6498 110.59 43.9798C110.59 45.1798 111.25 46.1298 112.28 46.1298C113.43 46.1298 113.97 45.2498 113.97 43.9098C113.97 42.4598 113.28 41.7798 112.32 41.7798Z" fill="#8BC540"/>
<path d="M103.15 41.9097C102.9 41.9097 102.72 41.9197 102.58 41.9297C102.59 43.1697 102.56 44.7797 102.54 46.0097C102.73 46.0397 102.96 46.0497 103.23 46.0497C104.07 46.0497 105.2 45.7797 105.2 44.0297C105.19 42.7497 104.32 41.9097 103.15 41.9097Z" fill="#8BC540"/>
<path d="M148.51 36.6197L142.6 37.3197L136.7 36.4297L130.79 36.2197L124.89 37.5197L118.99 37.0897L113.09 36.3197L107.19 36.3697L101.29 36.7197L95.3903 37.3197L89.4902 36.5497L83.7802 36.9797L84.2003 43.8997L83.4902 51.0697L89.5002 50.8797L95.4102 51.6897L101.31 50.4497L107.22 51.5297L113.12 50.8097L119.02 51.2397L124.92 50.3497L130.82 50.8297L136.72 51.1797L142.62 50.9697L148.52 50.8797L154.19 50.7897L154.63 43.8997L154.67 36.5997L148.51 36.6197ZM89.7903 47.6897C89.7303 47.8797 87.8902 47.8097 87.8802 47.7297C87.8402 46.9697 87.8003 41.2597 87.8903 40.2297C88.2303 40.0997 89.7402 40.1397 89.8002 40.2097C89.8802 40.6597 89.8703 46.9997 89.7903 47.6897ZM98.4302 47.6097C98.3902 47.7997 96.7902 47.8397 96.6602 47.7497C96.4602 47.4897 94.9102 44.9697 93.8702 43.3597C93.8702 44.9097 93.9302 46.8397 93.9002 47.6497C93.5302 47.7497 92.0402 47.7597 92.0302 47.6497C91.9802 47.0397 91.9402 40.9897 92.0302 40.2597C92.0702 40.0697 93.7502 40.0697 93.8002 40.1397C93.9202 40.3197 95.7402 43.1297 96.6502 44.7797C96.6702 43.0497 96.6102 40.8397 96.6502 40.2797C97.0202 40.1797 98.4403 40.1997 98.5103 40.2697C98.5703 40.3297 98.5402 46.8797 98.4302 47.6097ZM103.03 47.7997C102.12 47.7997 100.93 47.7197 100.7 47.6497C100.65 47.0097 100.69 40.9997 100.78 40.1997C101.03 40.1397 102.28 40.1097 103.13 40.1097C105.64 40.1097 107.18 41.7397 107.18 43.9197C107.18 46.1797 105.98 47.7997 103.03 47.7997ZM112.32 47.8897C110.03 47.8897 108.6 46.2697 108.6 43.8697C108.6 41.9297 109.82 40.0197 112.29 40.0197C114.55 40.0197 116.02 41.5297 116.02 44.0397C116.02 45.9497 114.89 47.8897 112.32 47.8897ZM124.25 47.6097C124.21 47.7997 122.61 47.8397 122.48 47.7497C122.28 47.4897 120.73 44.9697 119.69 43.3597C119.69 44.9097 119.75 46.8397 119.72 47.6497C119.35 47.7497 117.86 47.7597 117.85 47.6497C117.8 47.0397 117.76 40.9897 117.85 40.2597C117.89 40.0697 119.57 40.0697 119.62 40.1397C119.74 40.3197 121.56 43.1297 122.47 44.7797C122.49 43.0497 122.43 40.8397 122.47 40.2797C122.84 40.1797 124.26 40.1997 124.33 40.2697C124.39 40.3297 124.36 46.8797 124.25 47.6097ZM131.7 41.7897C131.4 41.8197 129.25 41.8297 128.37 41.7997L128.39 43.1097C129.34 43.0997 130.83 43.1197 130.89 43.1697C131.01 43.2697 130.92 44.6697 130.92 44.7197C130.92 44.7697 129.4 44.7697 128.38 44.7397C128.38 45.2197 128.38 45.7397 128.37 46.1197C129.34 46.0997 131.24 46.0897 131.54 46.1097C131.63 46.4597 131.6 47.5397 131.55 47.7197C131.64 47.7697 127.36 47.7997 126.5 47.7097C126.45 46.8597 126.5 41.6397 126.56 40.1897C127.56 40.1297 131.55 40.0997 131.66 40.1597C131.75 40.3497 131.75 41.4297 131.7 41.7897ZM135.79 47.7397C134.59 47.7397 133.53 47.2697 133.15 46.9797C133.11 46.7697 133.63 45.3897 133.75 45.4397C134 45.5897 134.8 46.1697 135.72 46.1697C136.35 46.1697 136.76 45.9797 136.76 45.5097C136.76 45.1697 136.5 44.9097 135.4 44.6797C133.99 44.3897 133.21 43.7297 133.21 42.3297C133.21 41.1097 134.21 40.0397 136.03 40.0397C137.17 40.0397 138.13 40.3397 138.54 40.6697C138.68 40.7797 138.04 42.1697 137.93 42.1597C137.77 42.0797 136.98 41.6897 136.07 41.6897C135.43 41.6897 135.12 41.9497 135.12 42.2997C135.12 42.6297 135.3 42.7997 136.34 43.0397C137.73 43.3597 138.8 43.9197 138.8 45.3897C138.8 46.5497 137.89 47.7397 135.79 47.7397ZM142.46 47.6897C142.4 47.8797 140.56 47.8097 140.55 47.7297C140.51 46.9697 140.47 41.2597 140.56 40.2297C140.9 40.0997 142.41 40.1397 142.47 40.2097C142.55 40.6597 142.54 46.9997 142.46 47.6897ZM149.48 47.7797C149.39 47.5897 149.04 46.5697 148.91 46.1697C148.65 46.1797 147.01 46.1697 146.62 46.1697C146.49 46.5897 146.18 47.6597 146.12 47.7597C146.07 47.7997 144.25 47.6697 144.12 47.5797C144.32 46.8097 146.41 40.2497 146.51 40.1897C146.61 40.1297 148.7 40.0597 148.97 40.1097C149 40.1197 151.25 46.3697 151.47 47.5897C151.24 47.7297 149.51 47.7997 149.48 47.7797Z" fill="#8BC540"/>
</svg>
