<svg width="28" height="28" viewBox="0 0 28 28" fill="none" xmlns="http://www.w3.org/2000/svg">
<path d="M11.4301 8.03002C11.4201 7.73002 11.23 7.60002 10.96 7.59002C10.65 7.58002 10.3401 7.58002 10.0201 7.59002C9.70007 7.60002 9.53007 7.77002 9.52007 8.09002C9.51007 8.51002 9.52007 8.91999 9.52007 9.36999H11.44C11.43 8.89999 11.4401 8.47002 11.4301 8.03002Z" fill="white"/>
<path d="M11.4304 12.64C11.4304 12.16 11.4404 11.71 11.4304 11.27C11.4304 11.02 11.2604 10.88 11.0404 10.86C10.6704 10.83 10.3003 10.82 9.94031 10.87C9.79031 10.89 9.57042 11.09 9.55042 11.23C9.50042 11.69 9.5304 12.16 9.5304 12.64H11.4304Z" fill="white"/>
<path d="M11.4301 14.53C11.4201 14.25 11.23 14.1199 10.97 14.1099C10.65 14.0999 10.3201 14.0999 10.0001 14.1099C9.74005 14.1199 9.54008 14.25 9.53008 14.52C9.51008 14.97 9.52007 15.43 9.52007 15.9H11.4301C11.4301 15.42 11.4501 14.97 11.4301 14.53Z" fill="white"/>
<path d="M14.7003 19.1599C14.7003 18.6899 14.7304 18.2299 14.6804 17.7899C14.6604 17.6399 14.4504 17.41 14.3004 17.39C13.9404 17.33 13.5603 17.33 13.2003 17.39C13.0403 17.41 12.8204 17.63 12.8004 17.77C12.7504 18.22 12.7804 18.68 12.7804 19.15H14.7003V19.1599Z" fill="white"/>
<path d="M14.7003 9.37996C14.7003 8.89996 14.7304 8.44996 14.6804 8.00996C14.6604 7.85996 14.4703 7.63995 14.3303 7.61995C13.9503 7.56995 13.5504 7.55995 13.1604 7.61995C13.0204 7.63995 12.8104 7.85995 12.8004 7.99995C12.7504 8.44995 12.7804 8.90996 12.7804 9.37996H14.7003Z" fill="white"/>
<path d="M14.7005 14.5599C14.6905 14.2699 14.5205 14.1199 14.2405 14.1099C13.9205 14.0999 13.5906 14.0999 13.2706 14.1099C13.0006 14.1099 12.8106 14.25 12.8006 14.52C12.7806 14.98 12.7906 15.43 12.7906 15.9H14.7005C14.7005 15.43 14.7005 14.9999 14.7005 14.5599Z" fill="white"/>
<path d="M14.6907 11.2399C14.6807 10.9799 14.4908 10.8599 14.2408 10.8499C13.9108 10.8399 13.5708 10.8399 13.2408 10.8499C12.9708 10.8599 12.8008 11.02 12.7908 11.28C12.7708 11.73 12.7808 12.1699 12.7808 12.6299H14.6907C14.6907 12.1499 14.7107 11.6999 14.6907 11.2399Z" fill="white"/>
<path d="M17.5007 17.3699C17.1707 17.3599 16.8307 17.3299 16.5007 17.3799C16.3407 17.3999 16.0906 17.5699 16.0806 17.6999C16.0306 18.1799 16.0607 18.6699 16.0607 19.1499H17.9506C17.9506 18.6699 17.9706 18.2099 17.9406 17.7599C17.9406 17.5099 17.7507 17.3799 17.5007 17.3699Z" fill="white"/>
<path d="M17.5006 10.8499C17.1706 10.8399 16.8306 10.8299 16.5006 10.8499C16.2606 10.8599 16.0706 10.99 16.0606 11.25C16.0406 11.71 16.0606 12.16 16.0606 12.63H17.9706C17.9706 12.16 17.9806 11.72 17.9706 11.27C17.9506 10.99 17.7606 10.8599 17.5006 10.8499Z" fill="white"/>
<path d="M17.5106 7.58992C17.1806 7.56992 16.8406 7.57992 16.5106 7.58992C16.2506 7.59992 16.0606 7.7399 16.0506 8.0099C16.0306 8.4599 16.0406 8.89987 16.0406 9.35987H17.9505C17.9505 8.90987 17.9505 8.47989 17.9505 8.05989C17.9605 7.75989 17.7906 7.59992 17.5106 7.58992Z" fill="white"/>
<path d="M13.7505 0.679932C6.33049 0.679932 0.310547 6.69993 0.310547 14.1199C0.310547 21.5399 6.33049 27.5599 13.7505 27.5599C21.1705 27.5599 27.1904 21.5399 27.1904 14.1199C27.1904 6.69993 21.1705 0.679932 13.7505 0.679932ZM13.7505 25.7399C11.9005 25.7399 10.1605 25.3 8.61047 24.53V5.99994C8.85047 5.97994 9.05051 5.96996 9.27051 5.95996C9.28051 5.76996 9.29054 5.59996 9.30054 5.39996H18.1904C18.2004 5.56996 18.2205 5.74991 18.2405 5.96991H18.8605L18.8905 24.5399C17.3305 25.2999 15.6005 25.7399 13.7505 25.7399Z" fill="white"/>
<path d="M15.2202 21.0499H12.2402V24.9999H15.2202V21.0499Z" fill="white"/>
<path d="M11.0001 17.38C10.6601 17.36 10.3001 17.34 9.9701 17.39C9.8101 17.42 9.57018 17.62 9.56018 17.76C9.51018 18.22 9.54016 18.69 9.54016 19.16H11.4501C11.4501 18.69 11.4601 18.25 11.4501 17.81C11.4301 17.54 11.2601 17.39 11.0001 17.38Z" fill="white"/>
<path d="M17.9507 14.53C17.9407 14.25 17.7508 14.1199 17.4908 14.1099C17.1708 14.0899 16.8408 14.0999 16.5208 14.1099C16.2208 14.1199 16.0408 14.28 16.0308 14.58C16.0208 15.01 16.0308 15.43 16.0308 15.89H17.9507C17.9607 15.42 17.9607 14.98 17.9507 14.53Z" fill="white"/>
</svg>
