<svg width="24" height="23" viewBox="0 0 24 23" fill="none" xmlns="http://www.w3.org/2000/svg">
<path d="M12.3401 0C5.99015 0 0.850098 5.13999 0.850098 11.49C0.850098 17.84 5.99015 22.98 12.3401 22.98C18.6901 22.98 23.8301 17.84 23.8301 11.49C23.8301 5.13999 18.6901 0 12.3401 0ZM8.74011 20.31C8.61011 20.51 8.36015 20.59 8.15015 20.49C6.74015 19.83 5.50011 18.85 4.55011 17.63C4.49011 17.55 4.5201 17.44 4.6001 17.39C4.8001 17.29 5.13013 17.12 5.32013 17.04C7.22013 16.17 9.22011 15.76 11.3001 15.66C11.4301 15.65 11.6601 15.55 11.6701 15.48C11.7001 14.99 11.6901 14.5 11.6901 13.99C10.7601 13.99 9.89013 13.99 9.01013 13.99C8.59013 13.99 8.28015 13.73 8.34015 13.4C8.37015 13.22 8.51013 13.04 8.63013 12.89C9.14013 12.27 9.6601 11.66 10.2301 10.98C10.0301 10.97 9.9701 10.95 9.9101 10.96C9.60009 10.98 9.31011 10.95 9.1701 10.63C9.0301 10.29 9.23013 10.07 9.45013 9.83C9.90013 9.31 10.3201 8.76 10.8201 8.14C10.5901 8.14 10.4801 8.17 10.4001 8.13C10.2101 8.04 9.92011 7.96 9.86011 7.81C9.79011 7.63 9.8501 7.31 9.9801 7.17C10.8301 6.28 11.4201 5.25 11.7901 4.09C11.8801 3.82 12.0501 3.65999 12.3401 3.64999C12.7001 3.64999 12.8301 3.91 12.9201 4.2C13.2601 5.25 13.7901 6.19 14.5401 7C14.7401 7.22 15.0001 7.42 14.8501 7.78C14.7001 8.16 14.3701 8.13 14.0501 8.14C14.0301 8.14 14.0101 8.16 13.9701 8.19C14.0001 8.24 14.0201 8.29999 14.0601 8.34999C14.4901 8.89999 14.9401 9.42999 15.3501 9.98999C15.4701 10.15 15.5501 10.44 15.4801 10.6C15.4101 10.76 15.1501 10.86 14.9601 10.95C14.8401 11 14.6801 10.95 14.5401 10.96C14.5201 11.01 14.5201 11.01 14.4901 11.06C15.0001 11.66 15.5101 12.27 16.0201 12.87C16.2101 13.09 16.4301 13.29 16.2901 13.63C16.1401 13.98 15.8502 14 15.5302 14C14.7002 14 13.8601 14 13.0201 14V15.64C13.6101 15.69 14.1601 15.73 14.7201 15.77C12.1501 16.56 10.1601 18.05 8.74011 20.31ZM19.9901 17.81C18.1701 20.01 15.4201 21.42 12.3401 21.42C12.0501 21.42 11.9601 21.29 11.9701 21.24C12.0101 21.03 12.0601 20.82 12.1001 20.61C12.5201 18.44 13.7201 16.9 15.8201 16.13C16.0401 16.05 16.2701 16.04 16.5001 16.09C17.5101 16.31 19.1601 16.98 19.8801 17.32C20.0701 17.41 20.1301 17.65 19.9901 17.81Z" fill="white"/>
</svg>
