<svg width="52" height="52" viewBox="0 0 52 52" fill="none" xmlns="http://www.w3.org/2000/svg">
<path d="M26.4709 0.220215C12.4009 0.220215 0.960938 11.66 0.960938 25.73C0.960938 39.8 12.4009 51.2402 26.4709 51.2402C40.5409 51.2402 51.981 39.8 51.981 25.73C51.981 11.66 40.5409 0.220215 26.4709 0.220215ZM40.101 29.0898C40.101 32.3798 37.431 35.0498 34.141 35.0498H18.801C15.511 35.0498 12.8409 32.3798 12.8409 29.0898V22.3599C12.8409 19.0699 15.511 16.3999 18.801 16.3999H34.141C37.431 16.3999 40.101 19.0699 40.101 22.3599V29.0898Z" fill="#05542E"/>
<path d="M31.3713 25.2002L24.8213 21.6402C24.5513 21.4902 23.6113 21.6803 23.6113 21.9903V28.9302C23.6113 29.2302 24.5514 29.4298 24.8114 29.2798L31.6714 25.8999C31.9414 25.7499 31.6413 25.3602 31.3713 25.2002Z" fill="#05542E"/>
</svg>
