<svg width="32" height="31" viewBox="0 0 32 31" fill="none" xmlns="http://www.w3.org/2000/svg">
<g filter="url(#filter0_d_3_1223)">
<path d="M16.34 0C9.99003 0 4.84998 5.13999 4.84998 11.49C4.84998 17.84 9.99003 22.98 16.34 22.98C22.69 22.98 27.83 17.84 27.83 11.49C27.83 5.13999 22.69 0 16.34 0ZM12.74 20.31C12.61 20.51 12.36 20.59 12.15 20.49C10.74 19.83 9.49999 18.85 8.54999 17.63C8.48999 17.55 8.51998 17.44 8.59998 17.39C8.79998 17.29 9.13001 17.12 9.32001 17.04C11.22 16.17 13.22 15.76 15.3 15.66C15.43 15.65 15.66 15.55 15.67 15.48C15.7 14.99 15.69 14.5 15.69 13.99C14.76 13.99 13.89 13.99 13.01 13.99C12.59 13.99 12.28 13.73 12.34 13.4C12.37 13.22 12.51 13.04 12.63 12.89C13.14 12.27 13.66 11.66 14.23 10.98C14.03 10.97 13.97 10.95 13.91 10.96C13.6 10.98 13.31 10.95 13.17 10.63C13.03 10.29 13.23 10.07 13.45 9.83C13.9 9.31 14.32 8.76 14.82 8.14C14.59 8.14 14.48 8.17 14.4 8.13C14.21 8.04 13.92 7.96 13.86 7.81C13.79 7.63 13.85 7.31 13.98 7.17C14.83 6.28 15.42 5.25 15.79 4.09C15.88 3.82 16.05 3.65999 16.34 3.64999C16.7 3.64999 16.83 3.91 16.92 4.2C17.26 5.25 17.79 6.19 18.54 7C18.74 7.22 19 7.42 18.85 7.78C18.7 8.16 18.37 8.13 18.05 8.14C18.03 8.14 18.01 8.16 17.97 8.19C18 8.24 18.02 8.29999 18.06 8.34999C18.49 8.89999 18.94 9.42999 19.35 9.98999C19.47 10.15 19.55 10.44 19.48 10.6C19.41 10.76 19.15 10.86 18.96 10.95C18.84 11 18.68 10.95 18.54 10.96C18.52 11.01 18.52 11.01 18.49 11.06C19 11.66 19.51 12.27 20.02 12.87C20.21 13.09 20.43 13.29 20.29 13.63C20.14 13.98 19.85 14 19.53 14C18.7 14 17.86 14 17.02 14V15.64C17.61 15.69 18.16 15.73 18.72 15.77C16.15 16.56 14.16 18.05 12.74 20.31ZM23.99 17.81C22.17 20.01 19.42 21.42 16.34 21.42C16.05 21.42 15.96 21.29 15.97 21.24C16.01 21.03 16.06 20.82 16.1 20.61C16.52 18.44 17.72 16.9 19.82 16.13C20.04 16.05 20.27 16.04 20.5 16.09C21.51 16.31 23.16 16.98 23.88 17.32C24.07 17.41 24.13 17.65 23.99 17.81Z" fill="#05542E"/>
</g>
<defs>
<filter id="filter0_d_3_1223" x="0.849976" y="0" width="30.98" height="30.98" filterUnits="userSpaceOnUse" color-interpolation-filters="sRGB">
<feFlood flood-opacity="0" result="BackgroundImageFix"/>
<feColorMatrix in="SourceAlpha" type="matrix" values="0 0 0 0 0 0 0 0 0 0 0 0 0 0 0 0 0 0 127 0" result="hardAlpha"/>
<feOffset dy="4"/>
<feGaussianBlur stdDeviation="2"/>
<feComposite in2="hardAlpha" operator="out"/>
<feColorMatrix type="matrix" values="0 0 0 0 0 0 0 0 0 0 0 0 0 0 0 0 0 0 0.25 0"/>
<feBlend mode="normal" in2="BackgroundImageFix" result="effect1_dropShadow_3_1223"/>
<feBlend mode="normal" in="SourceGraphic" in2="effect1_dropShadow_3_1223" result="shape"/>
</filter>
</defs>
</svg>
