<svg width="17" height="17" viewBox="0 0 17 17" fill="none" xmlns="http://www.w3.org/2000/svg">
<path d="M8.21973 0.599976C3.79973 0.599976 0.219727 4.17998 0.219727 8.59998C0.219727 13.02 3.79973 16.6 8.21973 16.6C12.6397 16.6 16.2197 13.02 16.2197 8.59998C16.2297 4.17998 12.6397 0.599976 8.21973 0.599976ZM13.2297 11.8C12.8197 11.8 12.5397 12.04 12.4797 12.45C12.4797 12.47 12.4697 12.48 12.4697 12.5C9.32973 12.5 6.18971 12.5 3.04971 12.5C3.03971 12.26 2.93973 12.0701 2.74973 11.9301C2.55973 11.7901 2.33972 11.79 2.11972 11.8C2.11972 11.74 2.11972 11.7 2.11972 11.67C2.15972 11.62 2.19972 11.58 2.20972 11.54C2.20972 11.51 2.15972 11.48 2.11972 11.46C2.11972 11.41 2.11972 11.3601 2.11972 11.3101C2.14972 11.2901 2.18973 11.28 2.18973 11.26C2.19973 11.23 2.19973 11.16 2.18973 11.16C2.08973 11.13 2.12972 11.05 2.11972 11.01C2.15972 10.95 2.20972 10.91 2.20972 10.87C2.20972 10.84 2.15972 10.8 2.11972 10.77C2.11972 10.72 2.11972 10.68 2.11972 10.63C2.23972 10.57 2.23974 10.5399 2.13974 10.4399C2.10974 10.4099 2.12974 10.33 2.13974 10.27C2.14974 10.24 2.20972 10.2101 2.20972 10.1801C2.19972 10.1401 2.15972 10.1101 2.11972 10.0601C2.11972 10.0101 2.09973 9.95002 2.18973 9.90002C2.24973 9.87002 2.21972 9.79 2.11972 9.75C2.11972 9.7 2.11972 9.66 2.11972 9.63C2.15972 9.58 2.19972 9.55002 2.20972 9.52002C2.20972 9.49002 2.14972 9.46005 2.14972 9.43005C2.13972 9.37005 2.13972 9.31 2.14972 9.25C2.15972 9.22 2.21972 9.19003 2.20972 9.16003C2.20972 9.12003 2.15972 9.08995 2.11972 9.06995C2.11972 9.02995 2.11972 8.99996 2.11972 8.95996C2.11972 8.93996 2.12974 8.92003 2.13974 8.91003C2.24974 8.83003 2.23972 8.77997 2.11972 8.71997C2.11972 8.66997 2.11972 8.62996 2.11972 8.57996C2.23972 8.51996 2.24974 8.47002 2.13974 8.40002C2.12974 8.39002 2.11972 8.35997 2.11972 8.33997C2.11972 8.30997 2.11972 8.27001 2.11972 8.26001C2.15972 8.21001 2.20972 8.17 2.20972 8.13C2.20972 8.1 2.15972 8.06003 2.11972 8.03003C2.11972 7.98003 2.11972 7.94 2.11972 7.88C2.17972 7.88 2.23971 7.88 2.29971 7.88C2.71971 7.88 2.99973 7.61995 3.03973 7.19995C3.03973 7.18995 3.03971 7.18004 3.04971 7.17004C6.18971 7.17004 9.32973 7.17004 12.4697 7.17004C12.5397 7.71004 12.8797 7.92 13.4097 7.88C13.3997 7.95001 13.4497 8.02995 13.3497 8.06995C13.2897 8.08995 13.3097 8.16996 13.3597 8.20996C13.4297 8.24996 13.4297 8.36002 13.3597 8.40002C13.3397 8.42002 13.3097 8.45998 13.3097 8.47998C13.3197 8.51998 13.3597 8.54995 13.3997 8.56995C13.3997 8.59995 13.3997 8.63002 13.3997 8.65002C13.3997 8.67002 13.3997 8.68996 13.3997 8.70996C13.2697 8.76996 13.2697 8.82002 13.3797 8.90002C13.4097 8.93002 13.4097 9.04995 13.3697 9.06995C13.2797 9.12995 13.2797 9.17998 13.3697 9.22998C13.4197 9.25998 13.4097 9.38003 13.3697 9.41003C13.3397 9.43003 13.3097 9.45999 13.3097 9.48999C13.3097 9.51999 13.3497 9.53995 13.3697 9.56995C13.3897 9.59995 13.3997 9.63004 13.3997 9.67004C13.3997 9.70004 13.3797 9.72 13.3597 9.75C13.3397 9.78 13.3097 9.79996 13.3097 9.82996C13.3097 9.85996 13.3397 9.90003 13.3597 9.91003C13.4397 9.95003 13.3797 10.02 13.3897 10.05C13.3497 10.1 13.3097 10.13 13.3097 10.16C13.3097 10.18 13.3497 10.22 13.3797 10.25C13.4197 10.28 13.4097 10.4001 13.3697 10.4301C13.3397 10.4501 13.3097 10.48 13.3097 10.51C13.3097 10.54 13.3497 10.56 13.3697 10.59C13.3797 10.61 13.3997 10.63 13.3997 10.65C13.4097 10.68 13.3997 10.71 13.3797 10.73C13.3497 10.77 13.3097 10.81 13.3097 10.85C13.3097 10.88 13.3497 10.9099 13.3897 10.9399C13.3997 10.9999 13.4297 11.07 13.3297 11.12C13.2697 11.15 13.2997 11.23 13.3997 11.27C13.3997 11.29 13.3997 11.32 13.3997 11.34C13.3997 11.36 13.3997 11.39 13.3997 11.41C13.2697 11.47 13.2797 11.51 13.3797 11.6C13.4097 11.63 13.3997 11.7 13.4097 11.76C13.3497 11.8 13.2897 11.8 13.2297 11.8ZM13.5697 9.34998C13.5697 8.80998 13.5697 8.27998 13.5697 7.72998C13.4397 7.72998 13.3197 7.72998 13.1997 7.72998C12.8797 7.72998 12.6397 7.49004 12.6397 7.17004C12.6397 7.13004 12.6397 7.08003 12.6397 7.03003C9.99974 7.03003 7.36974 7.03003 4.72974 7.03003C4.72974 7.02003 4.72974 7.02001 4.72974 7.01001C7.14974 6.26001 9.56973 5.52002 11.9997 4.77002C12.2297 5.27002 12.6097 5.37004 13.0997 5.17004C13.1197 5.24004 13.1897 5.3 13.0997 5.38C13.0597 5.41001 13.0697 5.48999 13.1297 5.48999C13.2397 5.49999 13.2197 5.59001 13.2497 5.64001C13.2297 5.67001 13.1897 5.69998 13.1897 5.72998C13.1897 5.75998 13.2197 5.81006 13.2297 5.81006C13.3297 5.82006 13.3297 5.89996 13.3497 5.95996C13.3297 5.98996 13.2897 6.01004 13.2897 6.04004C13.2897 6.07004 13.3097 6.13 13.3297 6.13C13.4297 6.14001 13.4297 6.22004 13.4497 6.29004C13.4397 6.30004 13.4197 6.30996 13.3997 6.32996C13.3597 6.37996 13.3697 6.43996 13.4197 6.45996C13.5197 6.47996 13.5197 6.54997 13.5297 6.58997C13.5097 6.65997 13.4797 6.71 13.4797 6.75C13.4797 6.78 13.5397 6.79996 13.5997 6.82996C13.6097 6.84996 13.6197 6.89994 13.6397 6.93994C13.6297 6.93994 13.6297 6.93994 13.6197 6.93994C13.5997 6.98994 13.5697 7.02996 13.5797 7.07996C13.5797 7.10996 13.6397 7.13001 13.6897 7.14001C13.7097 7.18001 13.7197 7.23003 13.7397 7.28003C13.7297 7.29003 13.7097 7.29995 13.6997 7.31995C13.6497 7.36995 13.6697 7.44997 13.7397 7.46997C13.8297 7.49997 13.8497 7.58002 13.7997 7.65002C13.7497 7.71002 13.7697 7.77004 13.8397 7.79004C13.9197 7.81004 13.9497 7.90997 13.8897 7.96997C13.8397 8.01997 13.8697 8.08999 13.9397 8.10999C14.0197 8.12999 14.0497 8.22004 13.9997 8.29004C13.9797 8.31004 13.9697 8.37001 13.9797 8.39001C13.9997 8.42001 14.0397 8.43996 14.0797 8.45996C14.0897 8.44996 14.0897 8.44994 14.0997 8.43994C14.1097 8.48994 14.1297 8.52996 14.1397 8.57996C14.1297 8.57996 14.1197 8.57996 14.1197 8.57996C14.1097 8.61996 14.0797 8.66996 14.0897 8.70996C14.0997 8.73996 14.1497 8.76004 14.1897 8.79004C14.1997 8.78004 14.1997 8.78002 14.2097 8.77002C14.2197 8.82002 14.2397 8.86004 14.2497 8.92004C13.9497 8.98004 13.7097 9.07998 13.5697 9.34998Z" fill="white"/>
</svg>
