<svg width="52" height="52" viewBox="0 0 52 52" fill="none" xmlns="http://www.w3.org/2000/svg">
<path d="M30.8407 15.1201H20.3907C17.4207 15.1201 15.0107 17.53 15.0107 20.5V30.9502C15.0107 33.9202 17.4207 36.3301 20.3907 36.3301H30.8407C33.8107 36.3301 36.2207 33.9202 36.2207 30.9502V20.5C36.2207 17.53 33.8107 15.1201 30.8407 15.1201ZM25.8008 31.96C22.2608 31.96 19.3807 29.08 19.3807 25.54C19.3807 22 22.2608 19.1201 25.8008 19.1201C29.3408 19.1201 32.2207 22 32.2207 25.54C32.2207 29.08 29.3408 31.96 25.8008 31.96ZM32.5907 20.2202C31.7507 20.2202 31.0608 19.5399 31.0608 18.6899C31.0608 17.8499 31.7407 17.1602 32.5907 17.1602C33.4307 17.1602 34.1207 17.8399 34.1207 18.6899C34.1207 19.5299 33.4407 20.2202 32.5907 20.2202Z" fill="#05542E"/>
<path d="M25.6204 0.220215C11.5504 0.220215 0.110352 11.66 0.110352 25.73C0.110352 39.8 11.5504 51.2402 25.6204 51.2402C39.6904 51.2402 51.1304 39.8 51.1304 25.73C51.1304 11.66 39.6904 0.220215 25.6204 0.220215ZM38.7904 31.0698C38.7904 35.3898 35.2803 38.8999 30.9603 38.8999H20.2804C15.9604 38.8999 12.4503 35.3898 12.4503 31.0698V20.3799C12.4503 16.0599 15.9604 12.5498 20.2804 12.5498H30.9603C35.2803 12.5498 38.7904 16.0599 38.7904 20.3799V31.0698Z" fill="#05542E"/>
<path d="M25.8005 21.4302C23.5305 21.4302 21.6904 23.27 21.6904 25.54C21.6904 27.81 23.5305 29.6499 25.8005 29.6499C28.0705 29.6499 29.9105 27.81 29.9105 25.54C29.9105 23.27 28.0705 21.4302 25.8005 21.4302Z" fill="#05542E"/>
</svg>
