<svg width="52" height="52" viewBox="0 0 52 52" fill="none" xmlns="http://www.w3.org/2000/svg">
<path d="M26.4309 0.220215C12.3609 0.220215 0.920898 11.66 0.920898 25.73C0.920898 39.8 12.3609 51.2402 26.4309 51.2402C40.5009 51.2402 51.9408 39.8 51.9408 25.73C51.9408 11.66 40.5009 0.220215 26.4309 0.220215ZM32.4309 16.9702C32.4309 17.1502 32.2808 17.2998 32.1108 17.2998H29.5209C28.8809 17.2998 28.3708 17.8102 28.3708 18.4502V21.1602H32.0509C32.2409 21.1602 32.3908 21.3198 32.3708 21.5098L32.0509 25.3301C32.0409 25.5001 31.8908 25.6299 31.7308 25.6299H28.3708V38.3101C28.3708 38.4901 28.2209 38.6401 28.0409 38.6401H23.4109C23.2309 38.6401 23.0808 38.4901 23.0808 38.3101V25.8301V25.6299H20.7609C20.5809 25.6299 20.4309 25.4798 20.4309 25.2998V21.48C20.4309 21.3 20.5809 21.1499 20.7609 21.1499H23.0808V17.46C23.0808 14.89 25.1608 12.8101 27.7308 12.8101H32.1108C32.2908 12.8101 32.4309 12.9601 32.4309 13.1401V16.9702V16.9702Z" fill="#05542E"/>
</svg>
