<svg width="28" height="27" viewBox="0 0 28 27" fill="none" xmlns="http://www.w3.org/2000/svg">
<path d="M11.3969 7.40673C11.3869 7.10673 11.1968 6.97673 10.9268 6.96673C10.6168 6.95673 10.3069 6.95673 9.98687 6.96673C9.66687 6.97673 9.49687 7.14673 9.48687 7.46673C9.47687 7.88673 9.48687 8.2967 9.48687 8.7467H11.4068C11.3968 8.2767 11.4069 7.84673 11.3969 7.40673Z" fill="#05542E"/>
<path d="M11.3962 12.0167C11.3962 11.5367 11.4062 11.0867 11.3962 10.6467C11.3962 10.3967 11.2262 10.2567 11.0062 10.2367C10.6362 10.2067 10.2661 10.1967 9.90613 10.2467C9.75613 10.2667 9.53624 10.4667 9.51624 10.6067C9.46624 11.0667 9.49622 11.5367 9.49622 12.0167H11.3962Z" fill="#05542E"/>
<path d="M11.3969 13.9067C11.3869 13.6267 11.1968 13.4966 10.9368 13.4866C10.6168 13.4766 10.2869 13.4766 9.96685 13.4866C9.70685 13.4966 9.50688 13.6267 9.49688 13.8967C9.47688 14.3467 9.48687 14.8067 9.48687 15.2767H11.3969C11.3969 14.7967 11.4169 14.3467 11.3969 13.9067Z" fill="#05542E"/>
<path d="M14.6661 18.5366C14.6661 18.0666 14.6962 17.6066 14.6462 17.1666C14.6262 17.0166 14.4162 16.7867 14.2662 16.7667C13.9062 16.7067 13.5261 16.7067 13.1661 16.7667C13.0061 16.7867 12.7862 17.0067 12.7662 17.1467C12.7162 17.5967 12.7462 18.0567 12.7462 18.5267H14.6661V18.5366Z" fill="#05542E"/>
<path d="M14.6661 8.75667C14.6661 8.27667 14.6962 7.82667 14.6462 7.38667C14.6262 7.23667 14.4361 7.01666 14.2961 6.99666C13.9161 6.94666 13.5162 6.93666 13.1262 6.99666C12.9862 7.01666 12.7762 7.23666 12.7662 7.37666C12.7162 7.82666 12.7462 8.28667 12.7462 8.75667H14.6661Z" fill="#05542E"/>
<path d="M14.6663 13.9366C14.6563 13.6466 14.4864 13.4966 14.2064 13.4866C13.8864 13.4766 13.5564 13.4766 13.2364 13.4866C12.9664 13.4866 12.7764 13.6267 12.7664 13.8967C12.7464 14.3567 12.7564 14.8067 12.7564 15.2767H14.6663C14.6663 14.8067 14.6663 14.3766 14.6663 13.9366Z" fill="#05542E"/>
<path d="M14.6565 10.6166C14.6465 10.3566 14.4566 10.2366 14.2066 10.2266C13.8766 10.2166 13.5366 10.2166 13.2066 10.2266C12.9366 10.2366 12.7666 10.3967 12.7566 10.6567C12.7366 11.1067 12.7466 11.5466 12.7466 12.0066H14.6565C14.6565 11.5266 14.6765 11.0766 14.6565 10.6166Z" fill="#05542E"/>
<path d="M17.4665 16.7466C17.1365 16.7366 16.7965 16.7066 16.4665 16.7566C16.3065 16.7766 16.0565 16.9466 16.0465 17.0766C15.9965 17.5566 16.0266 18.0466 16.0266 18.5266H17.9165C17.9165 18.0466 17.9364 17.5866 17.9064 17.1366C17.9064 16.8866 17.7165 16.7566 17.4665 16.7466Z" fill="#05542E"/>
<path d="M17.4664 10.2266C17.1364 10.2166 16.7964 10.2066 16.4664 10.2266C16.2264 10.2366 16.0365 10.3667 16.0265 10.6267C16.0065 11.0867 16.0265 11.5367 16.0265 12.0067H17.9364C17.9364 11.5367 17.9464 11.0967 17.9364 10.6467C17.9164 10.3667 17.7264 10.2366 17.4664 10.2266Z" fill="#05542E"/>
<path d="M17.4764 6.96663C17.1464 6.94663 16.8064 6.95663 16.4764 6.96663C16.2164 6.97663 16.0264 7.11661 16.0164 7.38661C15.9964 7.83661 16.0064 8.27658 16.0064 8.73658H17.9163C17.9163 8.28658 17.9163 7.8566 17.9163 7.4366C17.9263 7.1366 17.7564 6.97663 17.4764 6.96663Z" fill="#05542E"/>
<path d="M13.7163 0.0566406C6.29631 0.0566406 0.276367 6.07664 0.276367 13.4966C0.276367 20.9166 6.29631 26.9366 13.7163 26.9366C21.1363 26.9366 27.1562 20.9166 27.1562 13.4966C27.1562 6.07664 21.1363 0.0566406 13.7163 0.0566406ZM13.7163 25.1166C11.8663 25.1166 10.1263 24.6767 8.57629 23.9067V5.37665C8.81629 5.35665 9.01633 5.34667 9.23633 5.33667C9.24633 5.14667 9.25636 4.97667 9.26636 4.77667H18.1562C18.1663 4.94667 18.1863 5.12662 18.2063 5.34662H18.8263L18.8563 23.9166C17.2963 24.6766 15.5663 25.1166 13.7163 25.1166Z" fill="#05542E"/>
<path d="M15.186 20.4266H12.2061V24.3766H15.186V20.4266Z" fill="#05542E"/>
<path d="M10.9659 16.7567C10.6259 16.7367 10.2659 16.7167 9.93592 16.7667C9.77592 16.7967 9.536 16.9967 9.526 17.1367C9.476 17.5967 9.50598 18.0667 9.50598 18.5367H11.4159C11.4159 18.0667 11.4259 17.6267 11.4159 17.1867C11.3959 16.9167 11.2259 16.7667 10.9659 16.7567Z" fill="#05542E"/>
<path d="M17.9166 13.9067C17.9066 13.6267 17.7166 13.4966 17.4566 13.4866C17.1366 13.4666 16.8066 13.4766 16.4866 13.4866C16.1866 13.4966 16.0066 13.6567 15.9966 13.9567C15.9866 14.3867 15.9966 14.8067 15.9966 15.2667H17.9166C17.9266 14.7967 17.9266 14.3567 17.9166 13.9067Z" fill="#05542E"/>
</svg>
